HIERARCHY
ROOT hip
{
  OFFSET 0 0 0
  CHANNELS 6 Xposition Yposition Zposition Zrotation Yrotation Xrotation
  JOINT abdomen
  {
    OFFSET 0 20.6881 -0.73152
    CHANNELS 3 Zrotation Xrotation Yrotation
    JOINT chest
    {
      OFFSET 0 11.7043 -0.48768
      CHANNELS 3 Zrotation Xrotation Yrotation
      JOINT neck
      {
        OFFSET 0 22.1894 -2.19456
        CHANNELS 3 Zrotation Xrotation Yrotation
        JOINT head
        {
          OFFSET -0.24384 7.07133 1.2192
          CHANNELS 3 Zrotation Xrotation Yrotation
          JOINT leftEye
          {
            OFFSET 4.14528 8.04674 8.04672
            CHANNELS 3 Zrotation Xrotation Yrotation
            End Site
            {
              OFFSET 1 0 0
            }
          }
          JOINT rightEye
          {
            OFFSET -3.6576 8.04674 8.04672
            CHANNELS 3 Zrotation Xrotation Yrotation
            End Site
            {
              OFFSET 1 0 0
            }
          }
        }
      }
      JOINT rCollar
      {
        OFFSET -2.68224 19.2634 -4.8768
        CHANNELS 3 Zrotation Xrotation Yrotation
        JOINT rShldr
        {
          OFFSET -8.77824 -1.95073 1.46304
          CHANNELS 3 Zrotation Xrotation Yrotation
          JOINT rForeArm
          {
            OFFSET -28.1742 -1.7115 0.48768
            CHANNELS 3 Zrotation Xrotation Yrotation
            JOINT rHand
            {
              OFFSET -22.5879 0.773209 7.07136
              CHANNELS 3 Zrotation Xrotation Yrotation
              JOINT rThumb1
              {
                OFFSET -1.2192 -0.487915 3.41376
                CHANNELS 3 Zrotation Xrotation Yrotation
                JOINT rThumb2
                {
                  OFFSET -3.37035 -0.52449 3.41376
                  CHANNELS 3 Zrotation Xrotation Yrotation
                  End Site
                  {
                    OFFSET -1.78271 -1.18214 1.43049
                  }
                }
              }
              JOINT rIndex1
              {
                OFFSET -7.75947 0.938293 5.60832
                CHANNELS 3 Zrotation Xrotation Yrotation
                JOINT rIndex2
                {
                  OFFSET -2.54057 -0.884171 1.56538
                  CHANNELS 3 Zrotation Xrotation Yrotation
                  End Site
                  {
                    OFFSET -1.62519 -0.234802 1.16502
                  }
                }
              }
              JOINT rMid1
              {
                OFFSET -8.24714 1.18213 3.41376
                CHANNELS 3 Zrotation Xrotation Yrotation
                JOINT rMid2
                {
                  OFFSET -3.10165 -0.590103 1.0647
                  CHANNELS 3 Zrotation Xrotation Yrotation
                  End Site
                  {
                    OFFSET -2.48547 -0.328903 0.83742
                  }
                }
              }
              JOINT rRing1
              {
                OFFSET -8.82822 0.546677 1.51678
                CHANNELS 3 Zrotation Xrotation Yrotation
                JOINT rRing2
                {
                  OFFSET -2.60934 -0.819778 -0.0198488
                  CHANNELS 3 Zrotation Xrotation Yrotation
                  End Site
                  {
                    OFFSET -2.33842 -0.294052 0.168128
                  }
                }
              }
              JOINT rPinky1
              {
                OFFSET -8.27202 -0.0477905 -0.4584
                CHANNELS 3 Zrotation Xrotation Yrotation
                JOINT rPinky2
                {
                  OFFSET -1.82734 -0.647385 -0.700984
                  CHANNELS 3 Zrotation Xrotation Yrotation
                  End Site
                  {
                    OFFSET -1.69225 -0.51767 -0.607171
                  }
                }
              }
            }
          }
        }
      }
      JOINT lCollar
      {
        OFFSET 2.68224 19.2634 -4.8768
        CHANNELS 3 Zrotation Xrotation Yrotation
        JOINT lShldr
        {
          OFFSET 8.77824 -1.95073 1.46304
          CHANNELS 3 Zrotation Xrotation Yrotation
          JOINT lForeArm
          {
            OFFSET 28.1742 -1.7115 0.48768
            CHANNELS 3 Zrotation Xrotation Yrotation
            JOINT lHand
            {
              OFFSET 22.5879 0.773209 7.07136
              CHANNELS 3 Zrotation Xrotation Yrotation
              JOINT lThumb1
              {
                OFFSET 1.2192 -0.487915 3.41376
                CHANNELS 3 Zrotation Xrotation Yrotation
                JOINT lThumb2
                {
                  OFFSET 3.37035 -0.52449 3.41376
                  CHANNELS 3 Zrotation Xrotation Yrotation
                  End Site
                  {
                    OFFSET 1.78271 -1.18214 1.43049
                  }
                }
              }
              JOINT lIndex1
              {
                OFFSET 7.75947 0.938293 5.60832
                CHANNELS 3 Zrotation Xrotation Yrotation
                JOINT lIndex2
                {
                  OFFSET 2.54057 -0.884171 1.56538
                  CHANNELS 3 Zrotation Xrotation Yrotation
                  End Site
                  {
                    OFFSET 1.62519 -0.234802 1.16502
                  }
                }
              }
              JOINT lMid1
              {
                OFFSET 8.24714 1.18213 3.41376
                CHANNELS 3 Zrotation Xrotation Yrotation
                JOINT lMid2
                {
                  OFFSET 3.10165 -0.590103 1.0647
                  CHANNELS 3 Zrotation Xrotation Yrotation
                  End Site
                  {
                    OFFSET 2.48547 -0.328903 0.83742
                  }
                }
              }
              JOINT lRing1
              {
                OFFSET 8.82822 0.546677 1.51678
                CHANNELS 3 Zrotation Xrotation Yrotation
                JOINT lRing2
                {
                  OFFSET 2.60934 -0.819778 -0.0198488
                  CHANNELS 3 Zrotation Xrotation Yrotation
                  End Site
                  {
                    OFFSET 2.33842 -0.294052 0.168128
                  }
                }
              }
              JOINT lPinky1
              {
                OFFSET 8.27202 -0.0477905 -0.4584
                CHANNELS 3 Zrotation Xrotation Yrotation
                JOINT lPinky2
                {
                  OFFSET 1.82734 -0.647385 -0.700984
                  CHANNELS 3 Zrotation Xrotation Yrotation
                  End Site
                  {
                    OFFSET 1.69225 -0.51767 -0.607171
                  }
                }
              }
            }
          }
        }
      }
    }
  }
  JOINT rButtock
  {
    OFFSET -8.77824 4.35084 1.2192
    CHANNELS 3 Zrotation Xrotation Yrotation
    JOINT rThigh
    {
      OFFSET 0 -1.70687 -2.19456
      CHANNELS 3 Zrotation Xrotation Yrotation
      JOINT rShin
      {
        OFFSET 0 -36.8199 0.73152
        CHANNELS 3 Zrotation Xrotation Yrotation
        JOINT rFoot
        {
          OFFSET 0.73152 -45.1104 -5.12064
          CHANNELS 3 Zrotation Xrotation Yrotation
          End Site
          {
            OFFSET -1.1221 -3.69964 12.103
          }
        }
      }
    }
  }
  JOINT lButtock
  {
    OFFSET 8.77824 4.35084 1.2192
    CHANNELS 3 Zrotation Xrotation Yrotation
    JOINT lThigh
    {
      OFFSET 0 -1.70687 -2.19456
      CHANNELS 3 Zrotation Xrotation Yrotation
      JOINT lShin
      {
        OFFSET 0 -36.8199 0.73152
        CHANNELS 3 Zrotation Xrotation Yrotation
        JOINT lFoot
        {
          OFFSET -0.73152 -45.1104 -5.12064
          CHANNELS 3 Zrotation Xrotation Yrotation
          End Site
          {
            OFFSET 1.1221 -3.69964 12.103
          }
        }
      }
    }
  }
}
MOTION
Frames:	5
Frame Time:	0.03333
1.5143 41.7099 197.4397 -147.925556 81.493764 -141.634558 2.003131 18.392597 -0.553045 -1.46141 -14.939671 21.967407 -10.019682 27.666695 -98.170362 31.984656 18.871399 134.315688 0.002191 0.0 0.001356 -0.002888 0.0 -0.000986 -142.973781 39.431689 147.390206 -49.055762 16.562227 11.47105 109.308645 -51.699736 -130.192925 -58.092343 74.103158 41.819858 -103.199844 36.330916 60.111035 -137.337118 -19.580369 75.628951 -153.454583 -21.067959 121.742998 -133.89712 32.215338 108.382625 -161.153164 -8.160734 143.464991 -4.871406 20.731853 4.6616 -145.119057 0.268022 -179.211909 -7.203001 -61.370883 -28.164018 -157.329825 57.246134 -150.512864 2.124085 1.44029 -1.222556 149.905419 22.421671 -154.974998 43.513466 10.606805 -12.426004 -171.462715 17.811483 64.823252 14.257427 2.425253 1.785481 -71.830943 -48.263883 -25.791825 12.703107 -38.807519 29.818699 -159.640111 -69.972965 -102.395597 88.020862 53.509527 -73.560975 39.290226 53.365824 -32.877856 153.876369 19.990257 -138.627986 145.119589 0.18658 179.184255 -12.065508 35.786961 4.95031 26.563553 -38.861278 25.605325 151.699741 29.375747 146.888621 -179.95964 75.749699 -0.033208 141.411373 3.548913 -88.714544 -104.455804 -4.005723 132.764656 45.099977 -74.153185 -22.278578 0.000371 -5.8e-05 -0.000477 97.401604 -56.57519 -83.812128 -147.167186 -59.315499 -106.571249 -140.892752 25.930709 -145.0648
1.3431 42.3486 197.2347 -142.753693 80.74045 -135.850761 3.427027 18.756449 -0.96778 -1.391633 -15.119303 21.52837 8.837863 30.31516 138.406775 -23.621847 30.219893 -93.755516 -0.000332 -0.0 0.001484 0.000279 -0.0 -0.000824 -159.221552 -48.725174 170.566645 -77.397359 -42.558853 -86.971566 54.214978 2.653547 -178.399543 -172.282765 40.054878 144.57935 -176.068242 -13.697429 89.73874 -40.055259 -21.910852 3.510201 -173.600095 -52.692595 119.894784 -154.097872 -7.675259 118.524912 5.590481 -17.377203 -2.455731 -4.784401 20.788529 4.265819 -0.001096 -0.018362 -0.00677 -151.443185 32.241271 166.531625 -167.313748 79.513565 -148.593062 -141.899141 -5.965763 -137.238954 155.445574 -3.134413 -161.758086 36.132853 15.785757 7.36684 -150.171288 15.843289 49.398757 25.244167 28.797616 -6.799456 178.927821 -16.453523 -89.42243 -166.253249 -31.249529 -103.062419 -2.325223 -3.86794 1.259738 167.280917 -22.327131 -109.47196 -0.540899 -1.590086 0.293715 7.31024 26.196663 -6.025852 69.296809 72.946287 -87.017225 -5.868218 0.897554 4.293853 150.172789 29.491771 146.044519 140.626318 -7.02503 136.205172 -0.010237 -0.00024 -0.010237 -65.922575 -48.079527 -158.92236 -109.919854 -20.433714 -2.632569 49.46008 31.28403 60.104602 0.001102 -0.000241 -0.001417 96.081778 -56.300419 0.0 -115.481796 20.932036 -131.280681 -58.621752 -17.140218 -139.994953
0.918 43.8077 196.4647 -138.436614 79.799539 -130.476505 4.488327 19.476337 -0.0 -1.622706 -15.222938 19.7191 8.671032 18.320124 65.0516 -26.105067 -7.532942 -27.76953 -0.003433 -0.0 0.003077 -0.003433 -0.0 0.003077 2.460101 -18.216349 -3.668949 -112.164369 -2.593634 157.473228 -49.612622 59.997745 -93.400541 145.391288 -53.146474 127.692481 -166.689799 -4.362629 89.776484 -171.307274 -10.023581 87.85605 -0.328385 0.529668 0.186268 -166.435447 -20.455518 109.642883 1.280441 -3.803248 -0.679885 -151.792867 24.964651 137.170762 -0.00045 -0.060824 -0.019253 -140.361104 60.457062 154.518393 -1.601294 -4.015053 -1.488073 -128.692171 -29.141146 -127.113068 80.166297 68.372349 -83.260673 -94.285809 -37.515782 -98.911304 9.198766 -40.87461 -103.097557 6.534286 -24.370976 5.796754 -71.83137 -48.264271 -25.790779 139.979576 9.710358 -108.569141 138.492352 4.89692 -114.866348 135.810051 32.310648 -107.415678 4.104579 11.116581 -2.537087 -13.874879 -31.949908 1.303234 145.121562 0.26784 179.21226 138.77612 -60.556239 160.823173 152.504208 38.523004 147.798343 22.446782 -37.442543 23.44463 -179.990579 75.748502 -0.00972 141.650643 6.912937 81.349703 99.621542 12.116774 -37.784685 -175.441531 -5.275584 73.682906 -0.000795 0.001213 -0.000795 95.509863 -59.973223 -172.839659 116.681754 -21.130853 106.607309 -49.043119 31.620444 -169.050616
0.5628 46.1406 194.6107 -138.377328 78.704884 -128.977355 4.040611 15.338866 153.819274 -4.639736 9.728057 -134.352223 -10.796385 23.796507 -75.938556 36.875865 7.484487 114.618882 0.001734 0.0 0.003483 -0.003628 0.0 -0.004123 -44.041145 64.186524 46.711321 -104.52007 33.45896 87.678039 108.27952 -39.214888 -120.358608 -117.309471 75.262578 98.185971 -176.59808 -14.213176 89.691614 179.204733 -17.019062 97.459867 -46.207974 39.653733 36.317563 -178.996391 -31.822746 109.646414 -89.835444 60.702236 81.262784 -6.960125 25.690809 6.070904 -7.4e-05 -0.018348 -0.006882 -148.221738 -76.781405 -171.094295 -126.798132 -26.619266 -124.512108 -20.539415 -37.058602 -22.716735 22.304034 52.677025 -24.499652 0.072386 11.933163 -61.378239 61.337564 67.707032 82.965233 175.617207 -15.853102 -144.705692 -11.50853 -11.487343 0.622667 114.831788 6.632509 -103.18368 -12.216325 -21.784826 5.119079 175.436149 -35.048192 -107.00653 39.287607 53.366449 -32.877806 -3.292397 0.348889 -0.122426 72.088211 -72.143576 89.071933 58.617082 -82.297308 84.526728 1.184103 -3.007724 1.098937 -2.553896 0.037952 -0.025363 -179.988492 75.750481 -0.010154 143.512022 10.822684 7.08762 141.53305 89.070688 -120.456515 -84.379547 17.495015 -4.282904 0.003695 0.00015 0.003695 89.745043 -60.92178 89.777178 134.608076 69.888829 137.69375 100.097348 79.38229 -1.173599
0.3486 49.7734 191.3827 -144.84199 77.848573 -133.562877 4.496882 19.325318 -0.0 -0.451233 -14.605969 17.411502 -6.821422 16.247108 -31.014289 26.605878 -17.631071 74.24447 0.001942 -0.0 -0.003191 -0.003726 0.0 -0.003037 -155.41717 -2.951368 161.718764 158.640981 -2.852774 -163.317385 72.787917 39.42599 65.827518 -112.655948 75.910822 93.898693 173.306372 -23.518609 87.871798 -122.660943 20.361546 60.976426 -0.328941 0.529281 0.18773 -65.767096 48.403337 50.660877 -151.47757 17.84183 137.538631 -163.956494 -7.057373 143.209465 -67.60744 -72.075096 -84.373507 13.825856 29.742563 -0.395689 1.135378 3.040168 1.04553 -147.295267 11.335635 -143.612971 143.333643 38.770811 -147.774077 112.210847 64.18487 -72.124604 -131.602603 -0.451818 22.31623 69.474225 59.98275 -48.151398 165.649604 -3.320787 -89.683966 104.636568 10.2193 -45.456122 0.328935 0.529465 -0.186588 -23.107955 -16.561195 1.255528 151.477902 17.841809 -137.538404 83.221186 63.982821 -75.276591 145.100425 -1.438844 178.675459 151.284838 -30.275943 174.221211 160.130952 66.423243 151.106052 146.920331 7.419834 141.101659 0.000216 -0.001406 -0.000277 -54.095969 -43.498577 37.723711 87.959233 1.721886 0.212088 -175.872779 30.662092 99.421773 -0.00058 0.000433 -0.00058 83.194165 -64.268587 171.739786 102.851956 -8.170127 169.632714 -166.350647 56.668405 -103.385118
